<?xml version="1.0" encoding="UTF-8" standalone="no"?>
<!-- Created with Inkscape (http://www.inkscape.org/) -->

<svg
   xmlns:dc="http://purl.org/dc/elements/1.1/"
   xmlns:cc="http://creativecommons.org/ns#"
   xmlns:rdf="http://www.w3.org/1999/02/22-rdf-syntax-ns#"
   xmlns:svg="http://www.w3.org/2000/svg"
   xmlns="http://www.w3.org/2000/svg"
   xmlns:sodipodi="http://sodipodi.sourceforge.net/DTD/sodipodi-0.dtd"
   xmlns:inkscape="http://www.inkscape.org/namespaces/inkscape"
   width="210mm"
   height="297mm"
   id="svg2"
   version="1.1"
   inkscape:version="0.48.3.1 r9886"
   sodipodi:docname="Novo documento 1">
  <defs
     id="defs4" />
  <sodipodi:namedview
     id="base"
     pagecolor="#ffffff"
     bordercolor="#666666"
     borderopacity="1.0"
     inkscape:pageopacity="0.0"
     inkscape:pageshadow="2"
     inkscape:zoom="0.98994949"
     inkscape:cx="-35.583949"
     inkscape:cy="594.92681"
     inkscape:document-units="px"
     inkscape:current-layer="layer1"
     showgrid="false"
     inkscape:window-width="1920"
     inkscape:window-height="996"
     inkscape:window-x="-2"
     inkscape:window-y="-3"
     inkscape:window-maximized="1" />
  <metadata
     id="metadata7">
    <rdf:RDF>
      <cc:Work
         rdf:about="">
        <dc:format>image/svg+xml</dc:format>
        <dc:type
           rdf:resource="http://purl.org/dc/dcmitype/StillImage" />
        <dc:title></dc:title>
      </cc:Work>
    </rdf:RDF>
  </metadata>
  <g
     inkscape:label="Camada 1"
     inkscape:groupmode="layer"
     id="layer1">
    <rect
       style="fill:#ffffff;stroke:#000000;stroke-width:1;stroke-miterlimit:4;stroke-dasharray:none;stroke-dashoffset:0"
       id="rect2989"
       width="200.26274"
       height="201.02036"
       x="199.75766"
       y="351.82138" />
    <path
       sodipodi:type="arc"
       style="fill:#000000;fill-opacity:1;stroke:#000000;stroke-width:1;stroke-miterlimit:4;stroke-dasharray:none;stroke-dashoffset:0"
       id="path3761"
       sodipodi:cx="34.82143"
       sodipodi:cy="360.93362"
       sodipodi:rx="1.9642857"
       sodipodi:ry="1.7857143"
       d="m 36.785716,360.93362 a 1.9642857,1.7857143 0 1 1 -3.928572,0 1.9642857,1.7857143 0 1 1 3.928572,0 z"
       transform="matrix(0.87600518,0,0,0.93860569,267.95606,114.14587)" />
    <path
       sodipodi:type="arc"
       style="fill:#000000;fill-opacity:1;stroke:#000000;stroke-width:1;stroke-miterlimit:4;stroke-dasharray:none;stroke-dashoffset:0"
       id="path3761-2"
       sodipodi:cx="34.82143"
       sodipodi:cy="360.93362"
       sodipodi:rx="1.9642857"
       sodipodi:ry="1.7857143"
       d="m 36.785716,360.93362 a 1.9642857,1.7857143 0 1 1 -3.928572,0 1.9642857,1.7857143 0 1 1 3.928572,0 z"
       transform="matrix(0.87600518,0,0,0.93860569,269.53957,13.147741)" />
    <path
       sodipodi:type="arc"
       style="fill:#000000;fill-opacity:1;stroke:#000000;stroke-width:1;stroke-miterlimit:4;stroke-dasharray:none;stroke-dashoffset:0"
       id="path3761-2-6"
       sodipodi:cx="34.82143"
       sodipodi:cy="360.93362"
       sodipodi:rx="1.9642857"
       sodipodi:ry="1.7857143"
       d="m 36.785716,360.93362 a 1.9642857,1.7857143 0 1 1 -3.928572,0 1.9642857,1.7857143 0 1 1 3.928572,0 z"
       transform="matrix(0.87600518,0,0,0.93860569,269.43706,214.01663)" />
    <path
       sodipodi:type="arc"
       style="fill:#000000;fill-opacity:1;stroke:#000000;stroke-width:1;stroke-miterlimit:4;stroke-dasharray:none;stroke-dashoffset:0"
       id="path3761-2-7"
       sodipodi:cx="34.82143"
       sodipodi:cy="360.93362"
       sodipodi:rx="1.9642857"
       sodipodi:ry="1.7857143"
       d="m 36.785716,360.93362 a 1.9642857,1.7857143 0 1 1 -3.928572,0 1.9642857,1.7857143 0 1 1 3.928572,0 z"
       transform="matrix(0.87600518,0,0,0.93860569,369.50707,113.7664)" />
    <path
       sodipodi:type="arc"
       style="fill:#000000;fill-opacity:1;stroke:#000000;stroke-width:1;stroke-miterlimit:4;stroke-dasharray:none;stroke-dashoffset:0"
       id="path3761-2-3"
       sodipodi:cx="34.82143"
       sodipodi:cy="360.93362"
       sodipodi:rx="1.9642857"
       sodipodi:ry="1.7857143"
       d="m 36.785716,360.93362 a 1.9642857,1.7857143 0 1 1 -3.928572,0 1.9642857,1.7857143 0 1 1 3.928572,0 z"
       transform="matrix(0.87600518,0,0,0.93860569,169.50645,113.80975)" />
    <path
       style="fill:none;stroke:#000000;stroke-width:1;stroke-linecap:butt;stroke-linejoin:miter;stroke-opacity:1;stroke-miterlimit:4;stroke-dasharray:1,8;stroke-dashoffset:0"
       d="m 399.64286,351.29075 75.71428,-0.35714"
       id="path3813"
       inkscape:connector-curvature="0" />
    <path
       style="fill:none;stroke:#000000;stroke-width:1;stroke-linecap:butt;stroke-linejoin:miter;stroke-opacity:1;stroke-miterlimit:4;stroke-dasharray:1,8;stroke-dashoffset:0"
       d="m 400,553.07647 75,0.71428"
       id="path3815"
       inkscape:connector-curvature="0" />
    <path
       style="fill:none;stroke:#000000;stroke-width:1;stroke-linecap:butt;stroke-linejoin:miter;stroke-miterlimit:4;stroke-opacity:1;stroke-dasharray:1, 8;stroke-dashoffset:0"
       d="m 399.51533,351.82139 0.25254,-74.75129"
       id="path3817"
       inkscape:connector-curvature="0" />
    <path
       style="fill:none;stroke:#000000;stroke-width:1;stroke-linecap:butt;stroke-linejoin:miter;stroke-opacity:1;stroke-miterlimit:4;stroke-dasharray:1,8;stroke-dashoffset:0"
       d="M 199.50513,351.56885 199.25259,277.0701"
       id="path3819"
       inkscape:connector-curvature="0" />
    <path
       style="fill:none;stroke:#000000;stroke-width:1;stroke-linecap:butt;stroke-linejoin:miter;stroke-opacity:1;stroke-miterlimit:4;stroke-dasharray:1,8;stroke-dashoffset:0"
       d="m 199.25259,351.31632 -74.49875,1.01015"
       id="path3821"
       inkscape:connector-curvature="0" />
    <path
       style="fill:none;stroke:#000000;stroke-width:1;stroke-linecap:butt;stroke-linejoin:miter;stroke-opacity:1;stroke-miterlimit:4;stroke-dasharray:1,8;stroke-dashoffset:0"
       d="m 199.82143,552.71932 -75.57267,-0.13011"
       id="path3823"
       inkscape:connector-curvature="0" />
    <path
       style="fill:none;stroke:#000000;stroke-width:1;stroke-linecap:butt;stroke-linejoin:miter;stroke-opacity:1;stroke-miterlimit:4;stroke-dasharray:1,8;stroke-dashoffset:0"
       d="m 399.46429,552.71932 -0.17857,74.82143"
       id="path3825"
       inkscape:connector-curvature="0" />
    <path
       style="fill:none;stroke:#000000;stroke-width:1;stroke-linecap:butt;stroke-linejoin:miter;stroke-opacity:1;stroke-miterlimit:4;stroke-dasharray:1,8;stroke-dashoffset:0"
       d="M 199.46429,552.54075 198.75,627.71932"
       id="path3827"
       inkscape:connector-curvature="0" />
    <path
       sodipodi:type="arc"
       style="fill:#000000;fill-opacity:1;stroke:#000000;stroke-width:1;stroke-miterlimit:4;stroke-dasharray:none;stroke-dashoffset:0"
       id="path3761-8"
       sodipodi:cx="34.82143"
       sodipodi:cy="360.93362"
       sodipodi:rx="1.9642857"
       sodipodi:ry="1.7857143"
       d="m 36.785716,360.93362 a 1.9642857,1.7857143 0 1 1 -3.928572,0 1.9642857,1.7857143 0 1 1 3.928572,0 z"
       transform="matrix(0.87600518,0,0,0.93860569,69.139104,113.23069)" />
    <path
       sodipodi:type="arc"
       style="fill:#000000;fill-opacity:1;stroke:#000000;stroke-width:1;stroke-miterlimit:4;stroke-dasharray:none;stroke-dashoffset:0"
       id="path3761-7"
       sodipodi:cx="34.82143"
       sodipodi:cy="360.93362"
       sodipodi:rx="1.9642857"
       sodipodi:ry="1.7857143"
       d="m 36.785716,360.93362 a 1.9642857,1.7857143 0 1 1 -3.928572,0 1.9642857,1.7857143 0 1 1 3.928572,0 z"
       transform="matrix(0.87600518,0,0,0.93860569,269.1391,314.30211)" />
    <path
       sodipodi:type="arc"
       style="fill:#000000;fill-opacity:1;stroke:#000000;stroke-width:1;stroke-miterlimit:4;stroke-dasharray:none;stroke-dashoffset:0"
       id="path3761-5"
       sodipodi:cx="34.82143"
       sodipodi:cy="360.93362"
       sodipodi:rx="1.9642857"
       sodipodi:ry="1.7857143"
       d="m 36.785716,360.93362 a 1.9642857,1.7857143 0 1 1 -3.928572,0 1.9642857,1.7857143 0 1 1 3.928572,0 z"
       transform="matrix(0.87600518,0,0,0.93860569,470.21053,113.94497)" />
    <path
       sodipodi:type="arc"
       style="fill:#000000;fill-opacity:1;stroke:#000000;stroke-width:1;stroke-miterlimit:4;stroke-dasharray:none;stroke-dashoffset:0"
       id="path3761-83"
       sodipodi:cx="34.82143"
       sodipodi:cy="360.93362"
       sodipodi:rx="1.9642857"
       sodipodi:ry="1.7857143"
       d="m 36.785716,360.93362 a 1.9642857,1.7857143 0 1 1 -3.928572,0 1.9642857,1.7857143 0 1 1 3.928572,0 z"
       transform="matrix(0.87600518,0,0,0.93860569,269.49625,-86.412172)" />
    <path
       style="fill:none;stroke:#000000;stroke-width:1;stroke-linecap:butt;stroke-linejoin:miter;stroke-opacity:1;stroke-miterlimit:4;stroke-dasharray:1,8;stroke-dashoffset:0"
       d="m 98.994949,451.82649 -0.06638,225.17855"
       id="path3868"
       inkscape:connector-curvature="0" />
    <path
       style="fill:none;stroke:#000000;stroke-width:1;stroke-linecap:butt;stroke-linejoin:miter;stroke-opacity:1;stroke-miterlimit:4;stroke-dasharray:1,8;stroke-dashoffset:0"
       d="m 500.78313,452.58411 -0.0688,-225.57907"
       id="path3870"
       inkscape:connector-curvature="0" />
    <path
       style="fill:none;stroke:#000000;stroke-width:0.99911189;stroke-linecap:butt;stroke-linejoin:miter;stroke-miterlimit:4;stroke-opacity:1;stroke-dasharray:0.99911197, 7.99289575;stroke-dashoffset:0"
       d="m 300,252.36218 224.95707,-0.35714"
       id="path3872"
       inkscape:connector-curvature="0" />
    <path
       style="fill:none;stroke:#000000;stroke-width:0.99740028;stroke-linecap:butt;stroke-linejoin:miter;stroke-miterlimit:4;stroke-opacity:1;stroke-dasharray:0.99740027, 7.97920211;stroke-dashoffset:0"
       d="M 300.01531,651.8367 76.16844,652.71932"
       id="path3874"
       inkscape:connector-curvature="0" />
  </g>
</svg>
