<?xml version="1.0" encoding="UTF-8" standalone="no"?>
<!-- Created with Inkscape (http://www.inkscape.org/) -->

<svg
   xmlns:dc="http://purl.org/dc/elements/1.1/"
   xmlns:cc="http://creativecommons.org/ns#"
   xmlns:rdf="http://www.w3.org/1999/02/22-rdf-syntax-ns#"
   xmlns:svg="http://www.w3.org/2000/svg"
   xmlns="http://www.w3.org/2000/svg"
   xmlns:sodipodi="http://sodipodi.sourceforge.net/DTD/sodipodi-0.dtd"
   xmlns:inkscape="http://www.inkscape.org/namespaces/inkscape"
   width="210mm"
   height="297mm"
   id="svg2"
   version="1.1"
   inkscape:version="0.48.3.1 r9886"
   sodipodi:docname="volume_fronteira_bidimensional_integracao.svg">
  <defs
     id="defs4" />
  <sodipodi:namedview
     id="base"
     pagecolor="#ffffff"
     bordercolor="#666666"
     borderopacity="1.0"
     inkscape:pageopacity="0.0"
     inkscape:pageshadow="2"
     inkscape:zoom="1.4"
     inkscape:cx="282.14027"
     inkscape:cy="615.61235"
     inkscape:document-units="px"
     inkscape:current-layer="layer1"
     showgrid="false"
     inkscape:window-width="1920"
     inkscape:window-height="996"
     inkscape:window-x="-2"
     inkscape:window-y="-3"
     inkscape:window-maximized="1" />
  <metadata
     id="metadata7">
    <rdf:RDF>
      <cc:Work
         rdf:about="">
        <dc:format>image/svg+xml</dc:format>
        <dc:type
           rdf:resource="http://purl.org/dc/dcmitype/StillImage" />
        <dc:title />
      </cc:Work>
    </rdf:RDF>
  </metadata>
  <g
     inkscape:label="Camada 1"
     inkscape:groupmode="layer"
     id="layer1">
    <rect
       style="fill:#ffffff;stroke:#000000;stroke-width:1;stroke-miterlimit:4;stroke-dasharray:none;stroke-dashoffset:0"
       id="rect2989"
       width="200.26274"
       height="201.02036"
       x="36.112949"
       y="340.70972" />
    <path
       sodipodi:type="arc"
       style="fill:#000000;fill-opacity:1;stroke:#000000;stroke-width:1;stroke-miterlimit:4;stroke-dasharray:none;stroke-dashoffset:0"
       id="path3761"
       sodipodi:cx="34.82143"
       sodipodi:cy="360.93362"
       sodipodi:rx="1.9642857"
       sodipodi:ry="1.7857143"
       d="m 36.785716,360.93362 a 1.9642857,1.7857143 0 1 1 -3.928572,0 1.9642857,1.7857143 0 1 1 3.928572,0 z"
       transform="matrix(0.87600518,0,0,0.93860569,104.31135,103.03419)" />
    <path
       sodipodi:type="arc"
       style="fill:#000000;fill-opacity:1;stroke:#000000;stroke-width:1;stroke-miterlimit:4;stroke-dasharray:none;stroke-dashoffset:0"
       id="path3761-2"
       sodipodi:cx="34.82143"
       sodipodi:cy="360.93362"
       sodipodi:rx="1.9642857"
       sodipodi:ry="1.7857143"
       d="m 36.785716,360.93362 a 1.9642857,1.7857143 0 1 1 -3.928572,0 1.9642857,1.7857143 0 1 1 3.928572,0 z"
       transform="matrix(0.87600518,0,0,0.93860569,105.89486,2.036063)" />
    <path
       sodipodi:type="arc"
       style="fill:#000000;fill-opacity:1;stroke:#000000;stroke-width:1;stroke-miterlimit:4;stroke-dasharray:none;stroke-dashoffset:0"
       id="path3761-2-6"
       sodipodi:cx="34.82143"
       sodipodi:cy="360.93362"
       sodipodi:rx="1.9642857"
       sodipodi:ry="1.7857143"
       d="m 36.785716,360.93362 a 1.9642857,1.7857143 0 1 1 -3.928572,0 1.9642857,1.7857143 0 1 1 3.928572,0 z"
       transform="matrix(0.87600518,0,0,0.93860569,105.79235,202.90495)" />
    <path
       sodipodi:type="arc"
       style="fill:#000000;fill-opacity:1;stroke:#000000;stroke-width:1;stroke-miterlimit:4;stroke-dasharray:none;stroke-dashoffset:0"
       id="path3761-2-7"
       sodipodi:cx="34.82143"
       sodipodi:cy="360.93362"
       sodipodi:rx="1.9642857"
       sodipodi:ry="1.7857143"
       d="m 36.785716,360.93362 a 1.9642857,1.7857143 0 1 1 -3.928572,0 1.9642857,1.7857143 0 1 1 3.928572,0 z"
       transform="matrix(0.87600518,0,0,0.93860569,205.86236,102.65472)" />
    <path
       sodipodi:type="arc"
       style="fill:#000000;fill-opacity:1;stroke:#000000;stroke-width:1;stroke-miterlimit:4;stroke-dasharray:none;stroke-dashoffset:0"
       id="path3761-2-3"
       sodipodi:cx="34.82143"
       sodipodi:cy="360.93362"
       sodipodi:rx="1.9642857"
       sodipodi:ry="1.7857143"
       d="m 36.785716,360.93362 a 1.9642857,1.7857143 0 1 1 -3.928572,0 1.9642857,1.7857143 0 1 1 3.928572,0 z"
       transform="matrix(0.87600518,0,0,0.93860569,5.8617369,102.69807)" />
    <path
       style="fill:none;stroke:#000000;stroke-width:1;stroke-linecap:butt;stroke-linejoin:miter;stroke-miterlimit:4;stroke-opacity:1;stroke-dasharray:1, 8;stroke-dashoffset:0"
       d="m 235.99815,340.17907 75.71428,-0.35714"
       id="path3813"
       inkscape:connector-curvature="0" />
    <path
       style="fill:none;stroke:#000000;stroke-width:1;stroke-linecap:butt;stroke-linejoin:miter;stroke-miterlimit:4;stroke-opacity:1;stroke-dasharray:1, 8;stroke-dashoffset:0"
       d="m 236.35529,541.96479 75,0.71428"
       id="path3815"
       inkscape:connector-curvature="0" />
    <path
       style="fill:none;stroke:#000000;stroke-width:1;stroke-linecap:butt;stroke-linejoin:miter;stroke-miterlimit:4;stroke-opacity:1;stroke-dasharray:1, 8;stroke-dashoffset:0"
       d="m 235.87062,340.70971 0.25254,-74.75129"
       id="path3817"
       inkscape:connector-curvature="0" />
    <path
       style="fill:none;stroke:#000000;stroke-width:1;stroke-linecap:butt;stroke-linejoin:miter;stroke-miterlimit:4;stroke-opacity:1;stroke-dasharray:1, 8;stroke-dashoffset:0"
       d="m 35.860417,340.45717 -0.25254,-74.49875"
       id="path3819"
       inkscape:connector-curvature="0" />
    <path
       style="fill:none;stroke:#000000;stroke-width:1.0304873;stroke-linecap:butt;stroke-linejoin:miter;stroke-miterlimit:4;stroke-opacity:1;stroke-dasharray:1.0304873, 8.2438984;stroke-dashoffset:0"
       d="m 337.13842,442.50683 -0.0688,-104.38501"
       id="path3870"
       inkscape:connector-curvature="0"
       sodipodi:nodetypes="cc" />
    <path
       style="fill:none;stroke:#000000;stroke-width:0.98871541;stroke-linecap:butt;stroke-linejoin:miter;stroke-miterlimit:4;stroke-opacity:1;stroke-dasharray:0.9887155, 7.90972397;stroke-dashoffset:0"
       d="m 138.41936,241.2505 97.63408,0.65301"
       id="path3872"
       inkscape:connector-curvature="0"
       sodipodi:nodetypes="cc" />
    <rect
       style="fill:#ffffff;stroke:#000000;stroke-width:1;stroke-miterlimit:4;stroke-dasharray:none;stroke-dashoffset:0"
       id="rect2989-5"
       width="200.26274"
       height="201.02036"
       x="521.28961"
       y="341.93015" />
    <path
       sodipodi:type="arc"
       style="fill:#000000;fill-opacity:1;stroke:#000000;stroke-width:1;stroke-miterlimit:4;stroke-dasharray:none;stroke-dashoffset:0"
       id="path3761-8"
       sodipodi:cx="34.82143"
       sodipodi:cy="360.93362"
       sodipodi:rx="1.9642857"
       sodipodi:ry="1.7857143"
       d="m 36.785716,360.93362 a 1.9642857,1.7857143 0 1 1 -3.928572,0 1.9642857,1.7857143 0 1 1 3.928572,0 z"
       transform="matrix(0.87600518,0,0,0.93860569,589.48797,104.25461)" />
    <path
       sodipodi:type="arc"
       style="fill:#000000;fill-opacity:1;stroke:#000000;stroke-width:1;stroke-miterlimit:4;stroke-dasharray:none;stroke-dashoffset:0"
       id="path3761-2-36"
       sodipodi:cx="34.82143"
       sodipodi:cy="360.93362"
       sodipodi:rx="1.9642857"
       sodipodi:ry="1.7857143"
       d="m 36.785716,360.93362 a 1.9642857,1.7857143 0 1 1 -3.928572,0 1.9642857,1.7857143 0 1 1 3.928572,0 z"
       transform="matrix(0.87600518,0,0,0.93860569,591.07148,3.2564822)" />
    <path
       sodipodi:type="arc"
       style="fill:#000000;fill-opacity:1;stroke:#000000;stroke-width:1;stroke-miterlimit:4;stroke-dasharray:none;stroke-dashoffset:0"
       id="path3761-2-6-8"
       sodipodi:cx="34.82143"
       sodipodi:cy="360.93362"
       sodipodi:rx="1.9642857"
       sodipodi:ry="1.7857143"
       d="m 36.785716,360.93362 a 1.9642857,1.7857143 0 1 1 -3.928572,0 1.9642857,1.7857143 0 1 1 3.928572,0 z"
       transform="matrix(0.87600518,0,0,0.93860569,590.96897,204.12537)" />
    <path
       sodipodi:type="arc"
       style="fill:#000000;fill-opacity:1;stroke:#000000;stroke-width:1;stroke-miterlimit:4;stroke-dasharray:none;stroke-dashoffset:0"
       id="path3761-2-7-6"
       sodipodi:cx="34.82143"
       sodipodi:cy="360.93362"
       sodipodi:rx="1.9642857"
       sodipodi:ry="1.7857143"
       d="m 36.785716,360.93362 a 1.9642857,1.7857143 0 1 1 -3.928572,0 1.9642857,1.7857143 0 1 1 3.928572,0 z"
       transform="matrix(0.87600518,0,0,0.93860569,691.03898,103.87514)" />
    <path
       sodipodi:type="arc"
       style="fill:#000000;fill-opacity:1;stroke:#000000;stroke-width:1;stroke-miterlimit:4;stroke-dasharray:none;stroke-dashoffset:0"
       id="path3761-2-3-5"
       sodipodi:cx="34.82143"
       sodipodi:cy="360.93362"
       sodipodi:rx="1.9642857"
       sodipodi:ry="1.7857143"
       d="m 36.785716,360.93362 a 1.9642857,1.7857143 0 1 1 -3.928572,0 1.9642857,1.7857143 0 1 1 3.928572,0 z"
       transform="matrix(0.87600518,0,0,0.93860569,491.03836,103.91849)" />
    <path
       style="fill:none;stroke:#000000;stroke-width:1;stroke-linecap:butt;stroke-linejoin:miter;stroke-miterlimit:4;stroke-opacity:1;stroke-dasharray:1, 8;stroke-dashoffset:0"
       d="m 521.35334,542.82806 -75.57267,-0.13011"
       id="path3823-1"
       inkscape:connector-curvature="0" />
    <path
       style="fill:none;stroke:#000000;stroke-width:1;stroke-linecap:butt;stroke-linejoin:miter;stroke-miterlimit:4;stroke-opacity:1;stroke-dasharray:1, 8;stroke-dashoffset:0"
       d="m 720.9962,542.82806 -0.17857,74.82143"
       id="path3825-6"
       inkscape:connector-curvature="0" />
    <path
       style="fill:none;stroke:#000000;stroke-width:1;stroke-linecap:butt;stroke-linejoin:miter;stroke-miterlimit:4;stroke-opacity:1;stroke-dasharray:1, 8;stroke-dashoffset:0"
       d="m 420.52686,441.93523 0.94377,103.96024"
       id="path3868-7"
       inkscape:connector-curvature="0"
       sodipodi:nodetypes="cc" />
    <path
       style="fill:none;stroke:#000000;stroke-width:0.98871541;stroke-linecap:butt;stroke-linejoin:miter;stroke-miterlimit:4;stroke-opacity:1;stroke-dasharray:0.9887155, 7.90972397;stroke-dashoffset:0"
       d="m 525.46868,618.46425 97.63408,0.65301"
       id="path3872-8"
       inkscape:connector-curvature="0"
       sodipodi:nodetypes="cc" />
  </g>
</svg>
