<?xml version="1.0" encoding="UTF-8" standalone="no"?>
<!-- Created with Inkscape (http://www.inkscape.org/) -->

<svg
   xmlns:dc="http://purl.org/dc/elements/1.1/"
   xmlns:cc="http://creativecommons.org/ns#"
   xmlns:rdf="http://www.w3.org/1999/02/22-rdf-syntax-ns#"
   xmlns:svg="http://www.w3.org/2000/svg"
   xmlns="http://www.w3.org/2000/svg"
   xmlns:sodipodi="http://sodipodi.sourceforge.net/DTD/sodipodi-0.dtd"
   xmlns:inkscape="http://www.inkscape.org/namespaces/inkscape"
   width="210mm"
   height="297mm"
   id="svg2"
   version="1.1"
   inkscape:version="0.48.4 r9939"
   sodipodi:docname="curvatura_media.svg"
   inkscape:export-filename="/home/fred/Downloads/UFLA_Latex-1.0.0/imagens_malhas_moveis/curvatura_media.png"
   inkscape:export-xdpi="90"
   inkscape:export-ydpi="90">
  <defs
     id="defs4" />
  <sodipodi:namedview
     id="base"
     pagecolor="#ffffff"
     bordercolor="#666666"
     borderopacity="1.0"
     inkscape:pageopacity="0.0"
     inkscape:pageshadow="2"
     inkscape:zoom="2.8"
     inkscape:cx="381.14212"
     inkscape:cy="265.54123"
     inkscape:document-units="px"
     inkscape:current-layer="layer1"
     showgrid="false"
     inkscape:window-width="1366"
     inkscape:window-height="692"
     inkscape:window-x="-3"
     inkscape:window-y="-3"
     inkscape:window-maximized="1" />
  <metadata
     id="metadata7">
    <rdf:RDF>
      <cc:Work
         rdf:about="">
        <dc:format>image/svg+xml</dc:format>
        <dc:type
           rdf:resource="http://purl.org/dc/dcmitype/StillImage" />
        <dc:title></dc:title>
      </cc:Work>
    </rdf:RDF>
  </metadata>
  <g
     inkscape:label="Camada 1"
     inkscape:groupmode="layer"
     id="layer1">
    <path
       style="fill:none;stroke:#000000;stroke-width:1px;stroke-linecap:butt;stroke-linejoin:miter;stroke-opacity:1"
       d="M 348.57143,708.07647 217.85714,829.50504 355,875.21933 487.85714,816.6479 z"
       id="path2985"
       inkscape:connector-curvature="0" />
    <path
       style="fill:#a05a2c;stroke:#000000;stroke-width:2.7;stroke-linecap:butt;stroke-linejoin:miter;stroke-opacity:1;stroke-miterlimit:4.30000019;stroke-dasharray:none"
       d="M 348.57143,708.43361 355,875.21933"
       id="path2987"
       inkscape:connector-curvature="0" />
    <path
       sodipodi:type="arc"
       style="fill:#000000;fill-opacity:1;stroke:#000000;stroke-width:0.89700001;stroke-miterlimit:4;stroke-opacity:1;stroke-dasharray:none;stroke-dashoffset:0"
       id="path2989"
       sodipodi:cx="232.67857"
       sodipodi:cy="718.79077"
       sodipodi:rx="1.9642857"
       sodipodi:ry="2.1428571"
       d="m 234.64286,718.79077 a 1.9642857,2.1428571 0 1 1 -3.92857,0 1.9642857,2.1428571 0 1 1 3.92857,0 z"
       transform="translate(116.07143,-10.357143)" />
    <path
       sodipodi:type="arc"
       style="fill:#000000;fill-opacity:1;stroke:#000000;stroke-width:0.89700001;stroke-miterlimit:4;stroke-opacity:1;stroke-dasharray:none;stroke-dashoffset:0"
       id="path2989-7"
       sodipodi:cx="232.67857"
       sodipodi:cy="718.79077"
       sodipodi:rx="1.9642857"
       sodipodi:ry="2.1428571"
       d="m 234.64286,718.79077 a 1.9642857,2.1428571 0 1 1 -3.92857,0 1.9642857,2.1428571 0 1 1 3.92857,0 z"
       transform="translate(-14.82143,110.35713)" />
    <path
       sodipodi:type="arc"
       style="fill:#000000;fill-opacity:1;stroke:#000000;stroke-width:0.89700001;stroke-miterlimit:4;stroke-opacity:1;stroke-dasharray:none;stroke-dashoffset:0"
       id="path2989-8"
       sodipodi:cx="232.67857"
       sodipodi:cy="718.79077"
       sodipodi:rx="1.9642857"
       sodipodi:ry="2.1428571"
       d="m 234.64286,718.79077 a 1.9642857,2.1428571 0 1 1 -3.92857,0 1.9642857,2.1428571 0 1 1 3.92857,0 z"
       transform="translate(254.82143,97.499982)" />
    <path
       sodipodi:type="arc"
       style="fill:#000000;fill-opacity:1;stroke:#000000;stroke-width:0.89700001;stroke-miterlimit:4;stroke-opacity:1;stroke-dasharray:none;stroke-dashoffset:0"
       id="path2989-5"
       sodipodi:cx="232.67857"
       sodipodi:cy="718.79077"
       sodipodi:rx="1.9642857"
       sodipodi:ry="2.1428571"
       d="m 234.64286,718.79077 a 1.9642857,2.1428571 0 1 1 -3.92857,0 1.9642857,2.1428571 0 1 1 3.92857,0 z"
       transform="translate(121.60714,154.99998)" />
    <path
       style="fill:none;stroke:#000000;stroke-width:1px;stroke-linecap:butt;stroke-linejoin:miter;stroke-opacity:1"
       d="m 223.75,824.1479 c -0.13993,0.61299 0.70463,0.51639 0.89286,0.89285 0.0266,0.0532 -0.0421,0.13649 0,0.17857 0.0421,0.0421 0.13648,-0.0421 0.17857,0 0.50281,0.0111 0.0455,0.40262 0.17857,0.53572 0.36947,0.36947 -0.0144,-0.5646 0.35714,0.17857 0.0266,0.0532 0,0.11905 0,0.17857 0.0595,0.11905 0.10474,0.2464 0.17857,0.35714 0.0467,0.07 0.14093,0.10328 0.17858,0.17858 0.0561,0.11223 -0.0561,0.60205 0,0.71428 0.0376,0.0753 0.14092,0.10328 0.17857,0.17857 0.0266,0.0532 -0.0188,0.12211 0,0.17858 0.0421,0.12626 0.14629,0.22801 0.17857,0.35714 0.0289,0.11549 0,0.23809 0,0.35714 0,0.11905 0,0.2381 0,0.35714 0,0.35715 0,0.71429 0,1.07143 0,0.0804 0.0272,0.48137 0,0.53572 -0.0376,0.0753 -0.14093,0.10328 -0.17857,0.17857 -0.0325,0.0651 0,0.78996 0,0.89286"
       id="path3791"
       inkscape:connector-curvature="0" />
    <path
       style="fill:none;stroke:#000000;stroke-width:1px;stroke-linecap:butt;stroke-linejoin:miter;stroke-opacity:1"
       d="m 480.17857,811.46932 c 0,0.29762 0.0489,0.59929 0,0.89286 -0.0138,0.083 -0.15195,0.0987 -0.17857,0.17857 -0.0948,0.28453 0.10946,0.79779 0,1.07143 -0.0625,0.15632 -0.29461,0.20083 -0.35714,0.35714 -0.22588,0.20145 0.0753,0.48841 0,0.71429 -0.0842,0.25254 -0.29258,0.45604 -0.35714,0.71429 -0.0577,0.23098 0.0577,0.4833 0,0.71428 -0.0323,0.12913 -0.14629,0.22802 -0.17858,0.35714 -0.0289,0.1155 0.0289,0.24165 0,0.35715 -0.0323,0.12912 -0.14629,0.22802 -0.17857,0.35714 -0.0462,0.18498 0,0.50953 0,0.71429 0,0.41666 0,0.83333 0,1.25 0,0.35714 0,0.71428 0,1.07142 0,0.11905 -0.0532,0.25067 0,0.35715 0.0266,0.0532 0.11905,0 0.17857,0 0,0.11905 0,0.23809 0,0.35714"
       id="path3797"
       inkscape:connector-curvature="0" />
  </g>
</svg>
