<?xml version="1.0" encoding="UTF-8" standalone="no"?>
<!-- Created with Inkscape (http://www.inkscape.org/) -->

<svg
   xmlns:dc="http://purl.org/dc/elements/1.1/"
   xmlns:cc="http://creativecommons.org/ns#"
   xmlns:rdf="http://www.w3.org/1999/02/22-rdf-syntax-ns#"
   xmlns:svg="http://www.w3.org/2000/svg"
   xmlns="http://www.w3.org/2000/svg"
   xmlns:sodipodi="http://sodipodi.sourceforge.net/DTD/sodipodi-0.dtd"
   xmlns:inkscape="http://www.inkscape.org/namespaces/inkscape"
   width="210mm"
   height="297mm"
   id="svg2"
   version="1.1"
   inkscape:version="0.48.4 r9939"
   sodipodi:docname="flip_1.svg"
   inkscape:export-filename="/home/fred/Documentos/Dropbox/Projeto/Textos - Resumos/Dissertação/imagens_malhas_moveis/flip1.png"
   inkscape:export-xdpi="90"
   inkscape:export-ydpi="90">
  <defs
     id="defs4" />
  <sodipodi:namedview
     id="base"
     pagecolor="#ffffff"
     bordercolor="#666666"
     borderopacity="1.0"
     inkscape:pageopacity="0.0"
     inkscape:pageshadow="2"
     inkscape:zoom="0.98994949"
     inkscape:cx="294.14237"
     inkscape:cy="662.12184"
     inkscape:document-units="px"
     inkscape:current-layer="g4217"
     showgrid="false"
     inkscape:window-width="1366"
     inkscape:window-height="695"
     inkscape:window-x="-3"
     inkscape:window-y="-3"
     inkscape:window-maximized="1" />
  <metadata
     id="metadata7">
    <rdf:RDF>
      <cc:Work
         rdf:about="">
        <dc:format>image/svg+xml</dc:format>
        <dc:type
           rdf:resource="http://purl.org/dc/dcmitype/StillImage" />
        <dc:title></dc:title>
      </cc:Work>
    </rdf:RDF>
  </metadata>
  <g
     inkscape:label="Camada 1"
     inkscape:groupmode="layer"
     id="layer1">
    <text
       xml:space="preserve"
       style="font-size:40px;font-style:normal;font-weight:normal;line-height:125%;letter-spacing:0px;word-spacing:0px;fill:#000000;fill-opacity:1;stroke:none;font-family:Sans"
       x="335"
       y="818.79077"
       id="text3847"
       sodipodi:linespacing="125%"><tspan
         sodipodi:role="line"
         id="tspan3849"
         x="335"
         y="818.79077" /></text>
    <path
       sodipodi:type="arc"
       style="fill:#000000;fill-opacity:1"
       id="path3765"
       sodipodi:cx="295.98215"
       sodipodi:cy="707.0943"
       sodipodi:rx="2.1428571"
       sodipodi:ry="2.1428571"
       d="m 298.125,707.0943 a 2.1428571,2.1428571 0 1 1 -4.28571,0 2.1428571,2.1428571 0 1 1 4.28571,0 z"
       transform="translate(-17.802138,-458.132)" />
    <path
       transform="translate(-119.58246,-364.64464)"
       sodipodi:type="arc"
       style="fill:#000000;fill-opacity:1"
       id="path3765-0"
       sodipodi:cx="295.98215"
       sodipodi:cy="707.0943"
       sodipodi:rx="2.1428571"
       sodipodi:ry="2.1428571"
       d="m 298.125,707.0943 a 2.1428571,2.1428571 0 1 1 -4.28571,0 2.1428571,2.1428571 0 1 1 4.28571,0 z" />
    <path
       transform="translate(-207.46573,-457.0736)"
       sodipodi:type="arc"
       style="fill:#000000;fill-opacity:1"
       id="path3765-1"
       sodipodi:cx="295.98215"
       sodipodi:cy="707.0943"
       sodipodi:rx="2.1428571"
       sodipodi:ry="2.1428571"
       d="m 298.125,707.0943 a 2.1428571,2.1428571 0 1 1 -4.28571,0 2.1428571,2.1428571 0 1 1 4.28571,0 z" />
    <path
       transform="translate(-114.02662,-515.66245)"
       sodipodi:type="arc"
       style="fill:#000000;fill-opacity:1"
       id="path3765-4"
       sodipodi:cx="295.98215"
       sodipodi:cy="707.0943"
       sodipodi:rx="2.1428571"
       sodipodi:ry="2.1428571"
       d="m 298.125,707.0943 a 2.1428571,2.1428571 0 1 1 -4.28571,0 2.1428571,2.1428571 0 1 1 4.28571,0 z" />
    <path
       transform="translate(-112.5114,-596.53156)"
       sodipodi:type="arc"
       style="fill:#000000;fill-opacity:1"
       id="path3765-4-4"
       sodipodi:cx="295.98215"
       sodipodi:cy="707.0943"
       sodipodi:rx="2.1428571"
       sodipodi:ry="2.1428571"
       d="m 298.125,707.0943 a 2.1428571,2.1428571 0 1 1 -4.28571,0 2.1428571,2.1428571 0 1 1 4.28571,0 z" />
    <path
       style="fill:none;stroke:#000000;stroke-width:1px;stroke-linecap:butt;stroke-linejoin:miter;stroke-opacity:1"
       d="M 88.075695,249.89072 277.4793,248.88057 176.46404,342.82475 88.075695,249.38564 183.53511,109.98458 277.4793,248.37549"
       id="path3018"
       inkscape:connector-curvature="0" />
    <g
       id="g3104"
       transform="translate(-86.373568,-409.56057)">
      <path
         transform="translate(348.37263,-49.469018)"
         d="m 298.125,707.0943 c 0,1.18347 -0.95939,2.14286 -2.14285,2.14286 -1.18347,0 -2.14286,-0.95939 -2.14286,-2.14286 0,-1.18347 0.95939,-2.14286 2.14286,-2.14286 1.18346,0 2.14285,0.95939 2.14285,2.14286 z"
         sodipodi:ry="2.1428571"
         sodipodi:rx="2.1428571"
         sodipodi:cy="707.0943"
         sodipodi:cx="295.98215"
         id="path3765-10"
         style="fill:#000000;fill-opacity:1"
         sodipodi:type="arc" />
      <path
         d="m 298.125,707.0943 c 0,1.18347 -0.95939,2.14286 -2.14285,2.14286 -1.18347,0 -2.14286,-0.95939 -2.14286,-2.14286 0,-1.18347 0.95939,-2.14286 2.14286,-2.14286 1.18346,0 2.14285,0.95939 2.14285,2.14286 z"
         sodipodi:ry="2.1428571"
         sodipodi:rx="2.1428571"
         sodipodi:cy="707.0943"
         sodipodi:cx="295.98215"
         id="path3765-0-5"
         style="fill:#000000;fill-opacity:1"
         sodipodi:type="arc"
         transform="translate(246.59231,44.018342)" />
      <path
         d="m 298.125,707.0943 c 0,1.18347 -0.95939,2.14286 -2.14285,2.14286 -1.18347,0 -2.14286,-0.95939 -2.14286,-2.14286 0,-1.18347 0.95939,-2.14286 2.14286,-2.14286 1.18346,0 2.14285,0.95939 2.14285,2.14286 z"
         sodipodi:ry="2.1428571"
         sodipodi:rx="2.1428571"
         sodipodi:cy="707.0943"
         sodipodi:cx="295.98215"
         id="path3765-1-7"
         style="fill:#000000;fill-opacity:1"
         sodipodi:type="arc"
         transform="translate(158.70904,-48.410618)" />
      <path
         d="m 298.125,707.0943 c 0,1.18347 -0.95939,2.14286 -2.14285,2.14286 -1.18347,0 -2.14286,-0.95939 -2.14286,-2.14286 0,-1.18347 0.95939,-2.14286 2.14286,-2.14286 1.18346,0 2.14285,0.95939 2.14285,2.14286 z"
         sodipodi:ry="2.1428571"
         sodipodi:rx="2.1428571"
         sodipodi:cy="707.0943"
         sodipodi:cx="295.98215"
         id="path3765-4-5"
         style="fill:#000000;fill-opacity:1"
         sodipodi:type="arc"
         transform="translate(252.14815,-106.99946)" />
      <path
         d="m 298.125,707.0943 c 0,1.18347 -0.95939,2.14286 -2.14285,2.14286 -1.18347,0 -2.14286,-0.95939 -2.14286,-2.14286 0,-1.18347 0.95939,-2.14286 2.14286,-2.14286 1.18346,0 2.14285,0.95939 2.14285,2.14286 z"
         sodipodi:ry="2.1428571"
         sodipodi:rx="2.1428571"
         sodipodi:cy="707.0943"
         sodipodi:cx="295.98215"
         id="path3765-4-4-6"
         style="fill:#000000;fill-opacity:1"
         sodipodi:type="arc"
         transform="translate(253.66337,-187.86858)" />
      <path
         inkscape:connector-curvature="0"
         id="path3018-6"
         d="m 454.25047,658.5537 189.4036,-1.01015 -101.01526,93.94418 -88.38834,-93.43911 95.45941,-139.40105 93.94419,138.3909"
         style="fill:none;stroke:#000000;stroke-width:1px;stroke-linecap:butt;stroke-linejoin:miter;stroke-opacity:1" />
    </g>
    <path
       style="fill:#0000ff;stroke:#0000ff;stroke-width:1px;stroke-linecap:butt;stroke-linejoin:miter;stroke-opacity:1"
       d="m 462.84229,108.46935 -0.77805,62.63234 -0.23211,18.68494"
       id="path3112"
       inkscape:connector-curvature="0"
       sodipodi:nodetypes="ccc" />
    <path
       style="fill:#0000ff;stroke:#0000ff;stroke-width:1px;stroke-linecap:butt;stroke-linejoin:miter;stroke-opacity:1"
       d="m 462.33721,190.29171 -93.94419,58.58886"
       id="path3882"
       inkscape:connector-curvature="0" />
    <path
       style="fill:#0000ff;stroke:#0000ff;stroke-width:1px;stroke-linecap:butt;stroke-linejoin:miter;stroke-opacity:1"
       d="m 461.83213,190.29171 96.46957,57.5787"
       id="path3884"
       inkscape:connector-curvature="0" />
    <path
       sodipodi:type="arc"
       style="fill:#ffffff;fill-opacity:1;fill-rule:evenodd;stroke:#008000;stroke-width:1;stroke-linecap:butt;stroke-linejoin:miter;stroke-miterlimit:4;stroke-opacity:1;stroke-dasharray:1, 1;stroke-dashoffset:0"
       id="path2985"
       sodipodi:cx="201.02036"
       sodipodi:cy="709.92047"
       sodipodi:rx="94.954338"
       sodipodi:ry="90.913727"
       d="m 295.97469,709.92047 a 94.954338,90.913727 0 1 1 -189.90867,0 94.954338,90.913727 0 1 1 189.90867,0 z"
       transform="translate(-25.50847,-177.47186)" />
    <path
       sodipodi:type="arc"
       style="fill:#000000;fill-opacity:1"
       id="path3765-43"
       sodipodi:cx="295.98215"
       sodipodi:cy="707.0943"
       sodipodi:rx="2.1428571"
       sodipodi:ry="2.1428571"
       d="m 298.125,707.0943 a 2.1428571,2.1428571 0 1 1 -4.28571,0 2.1428571,2.1428571 0 1 1 4.28571,0 z"
       transform="translate(-25.50847,-177.47186)" />
    <path
       transform="translate(-127.28879,-83.984496)"
       sodipodi:type="arc"
       style="fill:#000000;fill-opacity:1"
       id="path3765-0-28"
       sodipodi:cx="295.98215"
       sodipodi:cy="707.0943"
       sodipodi:rx="2.1428571"
       sodipodi:ry="2.1428571"
       d="m 298.125,707.0943 a 2.1428571,2.1428571 0 1 1 -4.28571,0 2.1428571,2.1428571 0 1 1 4.28571,0 z" />
    <path
       transform="translate(-215.17206,-176.41346)"
       sodipodi:type="arc"
       style="fill:#000000;fill-opacity:1"
       id="path3765-1-1"
       sodipodi:cx="295.98215"
       sodipodi:cy="707.0943"
       sodipodi:rx="2.1428571"
       sodipodi:ry="2.1428571"
       d="m 298.125,707.0943 a 2.1428571,2.1428571 0 1 1 -4.28571,0 2.1428571,2.1428571 0 1 1 4.28571,0 z" />
    <path
       transform="translate(-121.73295,-235.00231)"
       sodipodi:type="arc"
       style="fill:#000000;fill-opacity:1"
       id="path3765-4-8"
       sodipodi:cx="295.98215"
       sodipodi:cy="707.0943"
       sodipodi:rx="2.1428571"
       sodipodi:ry="2.1428571"
       d="m 298.125,707.0943 a 2.1428571,2.1428571 0 1 1 -4.28571,0 2.1428571,2.1428571 0 1 1 4.28571,0 z" />
    <path
       style="fill:#ff0000;stroke:#ff0000;stroke-width:0.99192876px;stroke-linecap:butt;stroke-linejoin:miter;stroke-opacity:1"
       d="m 83.10952,530.61092 185.37107,-1.52331"
       id="path3809"
       inkscape:connector-curvature="0" />
    <path
       sodipodi:type="arc"
       style="fill:#ffffff;fill-opacity:1;fill-rule:evenodd;stroke:#008000;stroke-width:1;stroke-linecap:butt;stroke-linejoin:miter;stroke-miterlimit:4;stroke-opacity:1;stroke-dasharray:1, 1;stroke-dashoffset:0"
       id="path2985-5"
       sodipodi:cx="201.02036"
       sodipodi:cy="709.92047"
       sodipodi:rx="94.954338"
       sodipodi:ry="90.913727"
       d="m 295.97469,709.92047 a 94.954338,90.913727 0 1 1 -189.90867,0 94.954338,90.913727 0 1 1 189.90867,0 z"
       transform="matrix(0.84287513,0,0,0.8358918,277.51622,-48.009626)" />
    <path
       transform="translate(249.50235,-178.7991)"
       sodipodi:type="arc"
       style="fill:#000000;fill-opacity:1"
       id="path3765-8"
       sodipodi:cx="295.98215"
       sodipodi:cy="707.0943"
       sodipodi:rx="2.1428571"
       sodipodi:ry="2.1428571"
       d="m 298.125,707.0943 a 2.1428571,2.1428571 0 1 1 -4.28571,0 2.1428571,2.1428571 0 1 1 4.28571,0 z" />
    <path
       transform="translate(147.72203,-85.311736)"
       sodipodi:type="arc"
       style="fill:#000000;fill-opacity:1"
       id="path3765-0-2"
       sodipodi:cx="295.98215"
       sodipodi:cy="707.0943"
       sodipodi:rx="2.1428571"
       sodipodi:ry="2.1428571"
       d="m 298.125,707.0943 a 2.1428571,2.1428571 0 1 1 -4.28571,0 2.1428571,2.1428571 0 1 1 4.28571,0 z" />
    <path
       transform="translate(59.83875,-177.7407)"
       sodipodi:type="arc"
       style="fill:#000000;fill-opacity:1"
       id="path3765-1-3"
       sodipodi:cx="295.98215"
       sodipodi:cy="707.0943"
       sodipodi:rx="2.1428571"
       sodipodi:ry="2.1428571"
       d="m 298.125,707.0943 a 2.1428571,2.1428571 0 1 1 -4.28571,0 2.1428571,2.1428571 0 1 1 4.28571,0 z" />
    <path
       transform="translate(153.27787,-236.32955)"
       sodipodi:type="arc"
       style="fill:#000000;fill-opacity:1"
       id="path3765-4-5-0"
       sodipodi:cx="295.98215"
       sodipodi:cy="707.0943"
       sodipodi:rx="2.1428571"
       sodipodi:ry="2.1428571"
       d="m 298.125,707.0943 a 2.1428571,2.1428571 0 1 1 -4.28571,0 2.1428571,2.1428571 0 1 1 4.28571,0 z" />
    <path
       style="fill:#ff0000;stroke:#ff0000;stroke-width:1.63937891px;stroke-linecap:butt;stroke-linejoin:miter;stroke-opacity:1"
       d="m 443.47019,619.5778 5.24822,-146.96541"
       id="path3809-9"
       inkscape:connector-curvature="0" />
    <path
       transform="translate(-120.12431,-316.7365)"
       sodipodi:type="arc"
       style="fill:#000000;fill-opacity:1"
       id="path3765-4-4-1"
       sodipodi:cx="295.98215"
       sodipodi:cy="707.0943"
       sodipodi:rx="2.1428571"
       sodipodi:ry="2.1428571"
       d="m 298.125,707.0943 a 2.1428571,2.1428571 0 1 1 -4.28571,0 2.1428571,2.1428571 0 1 1 4.28571,0 z" />
    <path
       style="fill:none;stroke:#000000;stroke-width:1px;stroke-linecap:butt;stroke-linejoin:miter;stroke-opacity:1"
       d="m 80.812203,530.11331 94.954337,-140.4112 94.95434,140.4112"
       id="path4107"
       inkscape:connector-curvature="0" />
    <path
       style="fill:none;stroke:#000000;stroke-width:1px;stroke-linecap:butt;stroke-linejoin:miter;stroke-opacity:1"
       d="m 79.802051,531.12347 88.893429,92.93403 102.0254,-93.94419"
       id="path4109"
       inkscape:connector-curvature="0" />
    <path
       style="fill:none;stroke:#000080;stroke-width:1px;stroke-linecap:butt;stroke-linejoin:miter;stroke-opacity:1"
       d="m 174.75639,390.71226 -1.01015,80.8122 96.97464,57.5787"
       id="path4111"
       inkscape:connector-curvature="0" />
    <path
       style="fill:none;stroke:#000080;stroke-width:1px;stroke-linecap:butt;stroke-linejoin:miter;stroke-opacity:1"
       d="M 174.25131,472.02954 80.307127,531.12346"
       id="path4113"
       inkscape:connector-curvature="0" />
    <path
       sodipodi:type="arc"
       style="fill:#000000;fill-opacity:1"
       id="path3765-43-2"
       sodipodi:cx="295.98215"
       sodipodi:cy="707.0943"
       sodipodi:rx="2.1428571"
       sodipodi:ry="2.1428571"
       d="m 298.125,707.0943 a 2.1428571,2.1428571 0 1 1 -4.28571,0 2.1428571,2.1428571 0 1 1 4.28571,0 z"
       transform="translate(249.44437,-178.66478)" />
    <path
       transform="translate(59.780783,-177.60638)"
       sodipodi:type="arc"
       style="fill:#000000;fill-opacity:1"
       id="path3765-1-1-2"
       sodipodi:cx="295.98215"
       sodipodi:cy="707.0943"
       sodipodi:rx="2.1428571"
       sodipodi:ry="2.1428571"
       d="m 298.125,707.0943 a 2.1428571,2.1428571 0 1 1 -4.28571,0 2.1428571,2.1428571 0 1 1 4.28571,0 z" />
    <path
       transform="translate(154.82853,-317.92942)"
       sodipodi:type="arc"
       style="fill:#000000;fill-opacity:1"
       id="path3765-4-4-1-3"
       sodipodi:cx="295.98215"
       sodipodi:cy="707.0943"
       sodipodi:rx="2.1428571"
       sodipodi:ry="2.1428571"
       d="m 298.125,707.0943 a 2.1428571,2.1428571 0 1 1 -4.28571,0 2.1428571,2.1428571 0 1 1 4.28571,0 z" />
    <g
       id="g4217"
       transform="translate(107.14286,-344.79079)">
      <path
         inkscape:connector-curvature="0"
         id="path4107-5"
         d="m 248.62218,873.71118 94.95434,-140.41121 94.95434,140.41121"
         style="fill:none;stroke:#000000;stroke-width:1px;stroke-linecap:butt;stroke-linejoin:miter;stroke-opacity:1" />
      <path
         style="fill:none;stroke:#000000;stroke-width:1px;stroke-linecap:butt;stroke-linejoin:miter;stroke-opacity:1"
         d="m 437.83444,874.14649 -99.75257,91.92388"
         id="path4232"
         inkscape:connector-curvature="0" />
      <path
         style="fill:none;stroke:#000000;stroke-width:1px;stroke-linecap:butt;stroke-linejoin:miter;stroke-opacity:1"
         d="m 248.93591,874.9041 86.87312,91.41881"
         id="path4234"
         inkscape:connector-curvature="0" />
      <path
         style="fill:none;stroke:#000000;stroke-width:1px;stroke-linecap:butt;stroke-linejoin:miter;stroke-opacity:1"
         d="m 341.11233,814.54749 c 0.76461,0.51441 0.84543,0.50507 1.51523,0.50507"
         id="path4236"
         inkscape:connector-curvature="0" />
      <path
         style="fill:none;stroke:#000080;stroke-width:1px;stroke-linecap:butt;stroke-linejoin:miter;stroke-opacity:1"
         d="M 248.93591,873.38887 341.36487,815.3051"
         id="path4238"
         inkscape:connector-curvature="0" />
      <path
         style="fill:none;stroke:#000080;stroke-width:1px;stroke-linecap:butt;stroke-linejoin:miter;stroke-opacity:1"
         d="m 342.62756,815.05256 94.19673,57.32616"
         id="path4240"
         inkscape:connector-curvature="0" />
      <path
         style="fill:none;stroke:#000080;stroke-width:1px;stroke-linecap:butt;stroke-linejoin:miter;stroke-opacity:1"
         d="m 342.8801,734.74544 -0.75761,80.05459"
         id="path4242"
         inkscape:connector-curvature="0" />
    </g>
  </g>
</svg>
